<svg width="256" height="256" viewBox="0 0 224 224" fill="none" xmlns="http://www.w3.org/2000/svg">
<g clip-path="url(#clip0_2617_2352)">
<path d="M0.991211 0.0390625H7.04526V6.09312H0.991211V0.0390625ZM7.04526 0.0390625H13.0993V6.09312H7.04526V0.0390625ZM13.0993 0.0390625H19.1534V6.09312H13.0993V0.0390625ZM19.1534 0.0390625H25.2074V6.09312H19.1534V0.0390625ZM25.2074 0.0390625H31.2615V6.09312H25.2074V0.0390625ZM31.2615 0.0390625H37.3155V6.09312H31.2615V0.0390625ZM37.3155 0.0390625H43.3696V6.09312H37.3155V0.0390625ZM55.4777 0.0390625H61.5317V6.09312H55.4777V0.0390625ZM61.5317 0.0390625H67.5858V6.09312H61.5317V0.0390625ZM67.5858 0.0390625H73.6399V6.09312H67.5858V0.0390625ZM73.6399 0.0390625H79.6939V6.09312H73.6399V0.0390625ZM91.802 0.0390625H97.8561V6.09312H91.802V0.0390625ZM109.964 0.0390625H116.018V6.09312H109.964V0.0390625ZM116.018 0.0390625H122.072V6.09312H116.018V0.0390625ZM122.072 0.0390625H128.126V6.09312H122.072V0.0390625ZM134.18 0.0390625H140.234V6.09312H134.18V0.0390625ZM146.288 0.0390625H152.343V6.09312H146.288V0.0390625ZM158.397 0.0390625H164.451V6.09312H158.397V0.0390625ZM170.505 0.0390625H176.559V6.09312H170.505V0.0390625ZM182.613 0.0390625H188.667V6.09312H182.613V0.0390625ZM188.667 0.0390625H194.721V6.09312H188.667V0.0390625ZM194.721 0.0390625H200.775V6.09312H194.721V0.0390625ZM200.775 0.0390625H206.829V6.09312H200.775V0.0390625ZM206.829 0.0390625H212.883V6.09312H206.829V0.0390625ZM212.883 0.0390625H218.937V6.09312H212.883V0.0390625ZM218.937 0.0390625H224.991V6.09312H218.937V0.0390625ZM0.991211 6.09312H7.04526V12.1472H0.991211V6.09312ZM37.3155 6.09312H43.3696V12.1472H37.3155V6.09312ZM49.4236 6.09312H55.4777V12.1472H49.4236V6.09312ZM55.4777 6.09312H61.5317V12.1472H55.4777V6.09312ZM61.5317 6.09312H67.5858V12.1472H61.5317V6.09312ZM73.6399 6.09312H79.6939V12.1472H73.6399V6.09312ZM79.6939 6.09312H85.748V12.1472H79.6939V6.09312ZM85.748 6.09312H91.802V12.1472H85.748V6.09312ZM103.91 6.09312H109.964V12.1472H103.91V6.09312ZM128.126 6.09312H134.18V12.1472H128.126V6.09312ZM134.18 6.09312H140.234V12.1472H134.18V6.09312ZM140.234 6.09312H146.288V12.1472H140.234V6.09312ZM146.288 6.09312H152.343V12.1472H146.288V6.09312ZM158.397 6.09312H164.451V12.1472H158.397V6.09312ZM170.505 6.09312H176.559V12.1472H170.505V6.09312ZM182.613 6.09312H188.667V12.1472H182.613V6.09312ZM218.937 6.09312H224.991V12.1472H218.937V6.09312ZM0.991211 12.1472H7.04526V18.2012H0.991211V12.1472ZM13.0993 12.1472H19.1534V18.2012H13.0993V12.1472ZM19.1534 12.1472H25.2074V18.2012H19.1534V12.1472ZM25.2074 12.1472H31.2615V18.2012H25.2074V12.1472ZM37.3155 12.1472H43.3696V18.2012H37.3155V12.1472ZM49.4236 12.1472H55.4777V18.2012H49.4236V12.1472ZM61.5317 12.1472H67.5858V18.2012H61.5317V12.1472ZM67.5858 12.1472H73.6399V18.2012H67.5858V12.1472ZM73.6399 12.1472H79.6939V18.2012H73.6399V12.1472ZM97.8561 12.1472H103.91V18.2012H97.8561V12.1472ZM103.91 12.1472H109.964V18.2012H103.91V12.1472ZM109.964 12.1472H116.018V18.2012H109.964V12.1472ZM116.018 12.1472H122.072V18.2012H116.018V12.1472ZM134.18 12.1472H140.234V18.2012H134.18V12.1472ZM152.343 12.1472H158.397V18.2012H152.343V12.1472ZM164.451 12.1472H170.505V18.2012H164.451V12.1472ZM182.613 12.1472H188.667V18.2012H182.613V12.1472ZM194.721 12.1472H200.775V18.2012H194.721V12.1472ZM200.775 12.1472H206.829V18.2012H200.775V12.1472ZM206.829 12.1472H212.883V18.2012H206.829V12.1472ZM218.937 12.1472H224.991V18.2012H218.937V12.1472ZM0.991211 18.2012H7.04526V24.2553H0.991211V18.2012ZM13.0993 18.2012H19.1534V24.2553H13.0993V18.2012ZM19.1534 18.2012H25.2074V24.2553H19.1534V18.2012ZM25.2074 18.2012H31.2615V24.2553H25.2074V18.2012ZM37.3155 18.2012H43.3696V24.2553H37.3155V18.2012ZM55.4777 18.2012H61.5317V24.2553H55.4777V18.2012ZM61.5317 18.2012H67.5858V24.2553H61.5317V18.2012ZM67.5858 18.2012H73.6399V24.2553H67.5858V18.2012ZM91.802 18.2012H97.8561V24.2553H91.802V18.2012ZM97.8561 18.2012H103.91V24.2553H97.8561V18.2012ZM116.018 18.2012H122.072V24.2553H116.018V18.2012ZM134.18 18.2012H140.234V24.2553H134.18V18.2012ZM152.343 18.2012H158.397V24.2553H152.343V18.2012ZM182.613 18.2012H188.667V24.2553H182.613V18.2012ZM194.721 18.2012H200.775V24.2553H194.721V18.2012ZM200.775 18.2012H206.829V24.2553H200.775V18.2012ZM206.829 18.2012H212.883V24.2553H206.829V18.2012ZM218.937 18.2012H224.991V24.2553H218.937V18.2012ZM0.991211 24.2553H7.04526V30.3093H0.991211V24.2553ZM13.0993 24.2553H19.1534V30.3093H13.0993V24.2553ZM19.1534 24.2553H25.2074V30.3093H19.1534V24.2553ZM25.2074 24.2553H31.2615V30.3093H25.2074V24.2553ZM37.3155 24.2553H43.3696V30.3093H37.3155V24.2553ZM73.6399 24.2553H79.6939V30.3093H73.6399V24.2553ZM91.802 24.2553H97.8561V30.3093H91.802V24.2553ZM97.8561 24.2553H103.91V30.3093H97.8561V24.2553ZM103.91 24.2553H109.964V30.3093H103.91V24.2553ZM109.964 24.2553H116.018V30.3093H109.964V24.2553ZM128.126 24.2553H134.18V30.3093H128.126V24.2553ZM134.18 24.2553H140.234V30.3093H134.18V24.2553ZM146.288 24.2553H152.343V30.3093H146.288V24.2553ZM152.343 24.2553H158.397V30.3093H152.343V24.2553ZM158.397 24.2553H164.451V30.3093H158.397V24.2553ZM164.451 24.2553H170.505V30.3093H164.451V24.2553ZM182.613 24.2553H188.667V30.3093H182.613V24.2553ZM194.721 24.2553H200.775V30.3093H194.721V24.2553ZM200.775 24.2553H206.829V30.3093H200.775V24.2553ZM206.829 24.2553H212.883V30.3093H206.829V24.2553ZM218.937 24.2553H224.991V30.3093H218.937V24.2553ZM0.991211 30.3093H7.04526V36.3634H0.991211V30.3093ZM37.3155 30.3093H43.3696V36.3634H37.3155V30.3093ZM61.5317 30.3093H67.5858V36.3634H61.5317V30.3093ZM73.6399 30.3093H79.6939V36.3634H73.6399V30.3093ZM79.6939 30.3093H85.748V36.3634H79.6939V30.3093ZM85.748 30.3093H91.802V36.3634H85.748V30.3093ZM91.802 30.3093H97.8561V36.3634H91.802V30.3093ZM103.91 30.3093H109.964V36.3634H103.91V30.3093ZM109.964 30.3093H116.018V36.3634H109.964V30.3093ZM122.072 30.3093H128.126V36.3634H122.072V30.3093ZM128.126 30.3093H134.18V36.3634H128.126V30.3093ZM146.288 30.3093H152.343V36.3634H146.288V30.3093ZM182.613 30.3093H188.667V36.3634H182.613V30.3093ZM218.937 30.3093H224.991V36.3634H218.937V30.3093ZM0.991211 36.3634H7.04526V42.4174H0.991211V36.3634ZM7.04526 36.3634H13.0993V42.4174H7.04526V36.3634ZM13.0993 36.3634H19.1534V42.4174H13.0993V36.3634ZM19.1534 36.3634H25.2074V42.4174H19.1534V36.3634ZM25.2074 36.3634H31.2615V42.4174H25.2074V36.3634ZM31.2615 36.3634H37.3155V42.4174H31.2615V36.3634ZM37.3155 36.3634H43.3696V42.4174H37.3155V36.3634ZM49.4236 36.3634H55.4777V42.4174H49.4236V36.3634ZM61.5317 36.3634H67.5858V42.4174H61.5317V36.3634ZM73.6399 36.3634H79.6939V42.4174H73.6399V36.3634ZM85.748 36.3634H91.802V42.4174H85.748V36.3634ZM97.8561 36.3634H103.91V42.4174H97.8561V36.3634ZM109.964 36.3634H116.018V42.4174H109.964V36.3634ZM122.072 36.3634H128.126V42.4174H122.072V36.3634ZM134.18 36.3634H140.234V42.4174H134.18V36.3634ZM146.288 36.3634H152.343V42.4174H146.288V36.3634ZM158.397 36.3634H164.451V42.4174H158.397V36.3634ZM170.505 36.3634H176.559V42.4174H170.505V36.3634ZM182.613 36.3634H188.667V42.4174H182.613V36.3634ZM188.667 36.3634H194.721V42.4174H188.667V36.3634ZM194.721 36.3634H200.775V42.4174H194.721V36.3634ZM200.775 36.3634H206.829V42.4174H200.775V36.3634ZM206.829 36.3634H212.883V42.4174H206.829V36.3634ZM212.883 36.3634H218.937V42.4174H212.883V36.3634ZM218.937 36.3634H224.991V42.4174H218.937V36.3634ZM67.5858 42.4174H73.6399V48.4715H67.5858V42.4174ZM73.6399 42.4174H79.6939V48.4715H73.6399V42.4174ZM79.6939 42.4174H85.748V48.4715H79.6939V42.4174ZM85.748 42.4174H91.802V48.4715H85.748V42.4174ZM91.802 42.4174H97.8561V48.4715H91.802V42.4174ZM103.91 42.4174H109.964V48.4715H103.91V42.4174ZM109.964 42.4174H116.018V48.4715H109.964V42.4174ZM116.018 42.4174H122.072V48.4715H116.018V42.4174ZM134.18 42.4174H140.234V48.4715H134.18V42.4174ZM140.234 42.4174H146.288V48.4715H140.234V42.4174ZM164.451 42.4174H170.505V48.4715H164.451V42.4174ZM170.505 42.4174H176.559V48.4715H170.505V42.4174ZM7.04526 48.4715H13.0993V54.5255H7.04526V48.4715ZM13.0993 48.4715H19.1534V54.5255H13.0993V48.4715ZM19.1534 48.4715H25.2074V54.5255H19.1534V48.4715ZM31.2615 48.4715H37.3155V54.5255H31.2615V48.4715ZM37.3155 48.4715H43.3696V54.5255H37.3155V48.4715ZM67.5858 48.4715H73.6399V54.5255H67.5858V48.4715ZM73.6399 48.4715H79.6939V54.5255H73.6399V48.4715ZM97.8561 48.4715H103.91V54.5255H97.8561V48.4715ZM128.126 48.4715H134.18V54.5255H128.126V48.4715ZM140.234 48.4715H146.288V54.5255H140.234V48.4715ZM152.343 48.4715H158.397V54.5255H152.343V48.4715ZM164.451 48.4715H170.505V54.5255H164.451V48.4715ZM170.505 48.4715H176.559V54.5255H170.505V48.4715ZM206.829 48.4715H212.883V54.5255H206.829V48.4715ZM212.883 48.4715H218.937V54.5255H212.883V48.4715ZM0.991211 54.5255H7.04526V60.5796H0.991211V54.5255ZM13.0993 54.5255H19.1534V60.5796H13.0993V54.5255ZM19.1534 54.5255H25.2074V60.5796H19.1534V54.5255ZM25.2074 54.5255H31.2615V60.5796H25.2074V54.5255ZM31.2615 54.5255H37.3155V60.5796H31.2615V54.5255ZM55.4777 54.5255H61.5317V60.5796H55.4777V54.5255ZM67.5858 54.5255H73.6399V60.5796H67.5858V54.5255ZM73.6399 54.5255H79.6939V60.5796H73.6399V54.5255ZM97.8561 54.5255H103.91V60.5796H97.8561V54.5255ZM109.964 54.5255H116.018V60.5796H109.964V54.5255ZM122.072 54.5255H128.126V60.5796H122.072V54.5255ZM128.126 54.5255H134.18V60.5796H128.126V54.5255ZM134.18 54.5255H140.234V60.5796H134.18V54.5255ZM140.234 54.5255H146.288V60.5796H140.234V54.5255ZM146.288 54.5255H152.343V60.5796H146.288V54.5255ZM152.343 54.5255H158.397V60.5796H152.343V54.5255ZM170.505 54.5255H176.559V60.5796H170.505V54.5255ZM206.829 54.5255H212.883V60.5796H206.829V54.5255ZM212.883 54.5255H218.937V60.5796H212.883V54.5255ZM19.1534 60.5796H25.2074V66.6337H19.1534V60.5796ZM25.2074 60.5796H31.2615V66.6337H25.2074V60.5796ZM37.3155 60.5796H43.3696V66.6337H37.3155V60.5796ZM43.3696 60.5796H49.4236V66.6337H43.3696V60.5796ZM49.4236 60.5796H55.4777V66.6337H49.4236V60.5796ZM61.5317 60.5796H67.5858V66.6337H61.5317V60.5796ZM73.6399 60.5796H79.6939V66.6337H73.6399V60.5796ZM79.6939 60.5796H85.748V66.6337H79.6939V60.5796ZM97.8561 60.5796H103.91V66.6337H97.8561V60.5796ZM103.91 60.5796H109.964V66.6337H103.91V60.5796ZM109.964 60.5796H116.018V66.6337H109.964V60.5796ZM140.234 60.5796H146.288V66.6337H140.234V60.5796ZM146.288 60.5796H152.343V66.6337H146.288V60.5796ZM152.343 60.5796H158.397V66.6337H152.343V60.5796ZM176.559 60.5796H182.613V66.6337H176.559V60.5796ZM188.667 60.5796H194.721V66.6337H188.667V60.5796ZM194.721 60.5796H200.775V66.6337H194.721V60.5796ZM206.829 60.5796H212.883V66.6337H206.829V60.5796ZM0.991211 66.6337H7.04526V72.6877H0.991211V66.6337ZM25.2074 66.6337H31.2615V72.6877H25.2074V66.6337ZM31.2615 66.6337H37.3155V72.6877H31.2615V66.6337ZM103.91 66.6337H109.964V72.6877H103.91V66.6337ZM109.964 66.6337H116.018V72.6877H109.964V66.6337ZM116.018 66.6337H122.072V72.6877H116.018V66.6337ZM122.072 66.6337H128.126V72.6877H122.072V66.6337ZM134.18 66.6337H140.234V72.6877H134.18V66.6337ZM146.288 66.6337H152.343V72.6877H146.288V66.6337ZM152.343 66.6337H158.397V72.6877H152.343V66.6337ZM158.397 66.6337H164.451V72.6877H158.397V66.6337ZM170.505 66.6337H176.559V72.6877H170.505V66.6337ZM188.667 66.6337H194.721V72.6877H188.667V66.6337ZM206.829 66.6337H212.883V72.6877H206.829V66.6337ZM212.883 66.6337H218.937V72.6877H212.883V66.6337ZM0.991211 72.6877H7.04526V78.7418H0.991211V72.6877ZM13.0993 72.6877H19.1534V78.7418H13.0993V72.6877ZM19.1534 72.6877H25.2074V78.7418H19.1534V72.6877ZM25.2074 72.6877H31.2615V78.7418H25.2074V72.6877ZM31.2615 72.6877H37.3155V78.7418H31.2615V72.6877ZM37.3155 72.6877H43.3696V78.7418H37.3155V72.6877ZM43.3696 72.6877H49.4236V78.7418H43.3696V72.6877ZM49.4236 72.6877H55.4777V78.7418H49.4236V72.6877ZM55.4777 72.6877H61.5317V78.7418H55.4777V72.6877ZM67.5858 72.6877H73.6399V78.7418H67.5858V72.6877ZM73.6399 72.6877H79.6939V78.7418H73.6399V72.6877ZM79.6939 72.6877H85.748V78.7418H79.6939V72.6877ZM85.748 72.6877H91.802V78.7418H85.748V72.6877ZM97.8561 72.6877H103.91V78.7418H97.8561V72.6877ZM103.91 72.6877H109.964V78.7418H103.91V72.6877ZM109.964 72.6877H116.018V78.7418H109.964V72.6877ZM116.018 72.6877H122.072V78.7418H116.018V72.6877ZM122.072 72.6877H128.126V78.7418H122.072V72.6877ZM134.18 72.6877H140.234V78.7418H134.18V72.6877ZM146.288 72.6877H152.343V78.7418H146.288V72.6877ZM152.343 72.6877H158.397V78.7418H152.343V72.6877ZM158.397 72.6877H164.451V78.7418H158.397V72.6877ZM164.451 72.6877H170.505V78.7418H164.451V72.6877ZM170.505 72.6877H176.559V78.7418H170.505V72.6877ZM176.559 72.6877H182.613V78.7418H176.559V72.6877ZM182.613 72.6877H188.667V78.7418H182.613V72.6877ZM194.721 72.6877H200.775V78.7418H194.721V72.6877ZM206.829 72.6877H212.883V78.7418H206.829V72.6877ZM218.937 72.6877H224.991V78.7418H218.937V72.6877ZM25.2074 78.7418H31.2615V84.7958H25.2074V78.7418ZM43.3696 78.7418H49.4236V84.7958H43.3696V78.7418ZM55.4777 78.7418H61.5317V84.7958H55.4777V78.7418ZM91.802 78.7418H97.8561V84.7958H91.802V78.7418ZM116.018 78.7418H122.072V84.7958H116.018V78.7418ZM128.126 78.7418H134.18V84.7958H128.126V78.7418ZM158.397 78.7418H164.451V84.7958H158.397V78.7418ZM164.451 78.7418H170.505V84.7958H164.451V78.7418ZM170.505 78.7418H176.559V84.7958H170.505V78.7418ZM182.613 78.7418H188.667V84.7958H182.613V78.7418ZM194.721 78.7418H200.775V84.7958H194.721V78.7418ZM206.829 78.7418H212.883V84.7958H206.829V78.7418ZM218.937 78.7418H224.991V84.7958H218.937V78.7418ZM19.1534 84.7958H25.2074V90.8499H19.1534V84.7958ZM37.3155 84.7958H43.3696V90.8499H37.3155V84.7958ZM67.5858 84.7958H73.6399V90.8499H67.5858V84.7958ZM73.6399 84.7958H79.6939V90.8499H73.6399V84.7958ZM79.6939 84.7958H85.748V90.8499H79.6939V84.7958ZM85.748 84.7958H91.802V90.8499H85.748V84.7958ZM91.802 84.7958H97.8561V90.8499H91.802V84.7958ZM128.126 84.7958H134.18V90.8499H128.126V84.7958ZM170.505 84.7958H176.559V90.8499H170.505V84.7958ZM176.559 84.7958H182.613V90.8499H176.559V84.7958ZM194.721 84.7958H200.775V90.8499H194.721V84.7958ZM206.829 84.7958H212.883V90.8499H206.829V84.7958ZM212.883 84.7958H218.937V90.8499H212.883V84.7958ZM0.991211 90.8499H7.04526V96.9039H0.991211V90.8499ZM7.04526 90.8499H13.0993V96.9039H7.04526V90.8499ZM19.1534 90.8499H25.2074V96.9039H19.1534V90.8499ZM31.2615 90.8499H37.3155V96.9039H31.2615V90.8499ZM43.3696 90.8499H49.4236V96.9039H43.3696V90.8499ZM55.4777 90.8499H61.5317V96.9039H55.4777V90.8499ZM67.5858 90.8499H73.6399V96.9039H67.5858V90.8499ZM85.748 90.8499H91.802V96.9039H85.748V90.8499ZM103.91 90.8499H109.964V96.9039H103.91V90.8499ZM140.234 90.8499H146.288V96.9039H140.234V90.8499ZM158.397 90.8499H164.451V96.9039H158.397V90.8499ZM164.451 90.8499H170.505V96.9039H164.451V90.8499ZM212.883 90.8499H218.937V96.9039H212.883V90.8499ZM218.937 90.8499H224.991V96.9039H218.937V90.8499ZM0.991211 96.9039H7.04526V102.958H0.991211V96.9039ZM19.1534 96.9039H25.2074V102.958H19.1534V96.9039ZM25.2074 96.9039H31.2615V102.958H25.2074V96.9039ZM31.2615 96.9039H37.3155V102.958H31.2615V96.9039ZM37.3155 96.9039H43.3696V102.958H37.3155V96.9039ZM134.18 96.9039H140.234V102.958H134.18V96.9039ZM152.343 96.9039H158.397V102.958H152.343V96.9039ZM200.775 96.9039H206.829V102.958H200.775V96.9039ZM206.829 96.9039H212.883V102.958H206.829V96.9039ZM212.883 96.9039H218.937V102.958H212.883V96.9039ZM218.937 96.9039H224.991V102.958H218.937V96.9039ZM0.991211 102.958H7.04526V109.012H0.991211V102.958ZM13.0993 102.958H19.1534V109.012H13.0993V102.958ZM19.1534 102.958H25.2074V109.012H19.1534V102.958ZM25.2074 102.958H31.2615V109.012H25.2074V102.958ZM31.2615 102.958H37.3155V109.012H31.2615V102.958ZM49.4236 102.958H55.4777V109.012H49.4236V102.958ZM61.5317 102.958H67.5858V109.012H61.5317V102.958ZM67.5858 102.958H73.6399V109.012H67.5858V102.958ZM73.6399 102.958H79.6939V109.012H73.6399V102.958ZM91.802 102.958H97.8561V109.012H91.802V102.958ZM97.8561 102.958H103.91V109.012H97.8561V102.958ZM103.91 102.958H109.964V109.012H103.91V102.958ZM116.018 102.958H122.072V109.012H116.018V102.958ZM122.072 102.958H128.126V109.012H122.072V102.958ZM134.18 102.958H140.234V109.012H134.18V102.958ZM146.288 102.958H152.343V109.012H146.288V102.958ZM164.451 102.958H170.505V109.012H164.451V102.958ZM170.505 102.958H176.559V109.012H170.505V102.958ZM176.559 102.958H182.613V109.012H176.559V102.958ZM182.613 102.958H188.667V109.012H182.613V102.958ZM206.829 102.958H212.883V109.012H206.829V102.958ZM218.937 102.958H224.991V109.012H218.937V102.958ZM0.991211 109.012H7.04526V115.066H0.991211V109.012ZM7.04526 109.012H13.0993V115.066H7.04526V109.012ZM13.0993 109.012H19.1534V115.066H13.0993V109.012ZM37.3155 109.012H43.3696V115.066H37.3155V109.012ZM43.3696 109.012H49.4236V115.066H43.3696V109.012ZM61.5317 109.012H67.5858V115.066H61.5317V109.012ZM67.5858 109.012H73.6399V115.066H67.5858V109.012ZM79.6939 109.012H85.748V115.066H79.6939V109.012ZM97.8561 109.012H103.91V115.066H97.8561V109.012ZM109.964 109.012H116.018V115.066H109.964V109.012ZM140.234 109.012H146.288V115.066H140.234V109.012ZM146.288 109.012H152.343V115.066H146.288V109.012ZM152.343 109.012H158.397V115.066H152.343V109.012ZM158.397 109.012H164.451V115.066H158.397V109.012ZM164.451 109.012H170.505V115.066H164.451V109.012ZM176.559 109.012H182.613V115.066H176.559V109.012ZM194.721 109.012H200.775V115.066H194.721V109.012ZM200.775 109.012H206.829V115.066H200.775V109.012ZM212.883 109.012H218.937V115.066H212.883V109.012ZM218.937 109.012H224.991V115.066H218.937V109.012ZM13.0993 115.066H19.1534V121.12H13.0993V115.066ZM25.2074 115.066H31.2615V121.12H25.2074V115.066ZM43.3696 115.066H49.4236V121.12H43.3696V115.066ZM61.5317 115.066H67.5858V121.12H61.5317V115.066ZM67.5858 115.066H73.6399V121.12H67.5858V115.066ZM73.6399 115.066H79.6939V121.12H73.6399V115.066ZM79.6939 115.066H85.748V121.12H79.6939V115.066ZM85.748 115.066H91.802V121.12H85.748V115.066ZM116.018 115.066H122.072V121.12H116.018V115.066ZM134.18 115.066H140.234V121.12H134.18V115.066ZM146.288 115.066H152.343V121.12H146.288V115.066ZM164.451 115.066H170.505V121.12H164.451V115.066ZM170.505 115.066H176.559V121.12H170.505V115.066ZM182.613 115.066H188.667V121.12H182.613V115.066ZM188.667 115.066H194.721V121.12H188.667V115.066ZM200.775 115.066H206.829V121.12H200.775V115.066ZM0.991211 121.12H7.04526V127.174H0.991211V121.12ZM7.04526 121.12H13.0993V127.174H7.04526V121.12ZM13.0993 121.12H19.1534V127.174H13.0993V121.12ZM25.2074 121.12H31.2615V127.174H25.2074V121.12ZM31.2615 121.12H37.3155V127.174H31.2615V121.12ZM37.3155 121.12H43.3696V127.174H37.3155V121.12ZM55.4777 121.12H61.5317V127.174H55.4777V121.12ZM67.5858 121.12H73.6399V127.174H67.5858V121.12ZM85.748 121.12H91.802V127.174H85.748V121.12ZM116.018 121.12H122.072V127.174H116.018V121.12ZM128.126 121.12H134.18V127.174H128.126V121.12ZM140.234 121.12H146.288V127.174H140.234V121.12ZM158.397 121.12H164.451V127.174H158.397V121.12ZM164.451 121.12H170.505V127.174H164.451V121.12ZM170.505 121.12H176.559V127.174H170.505V121.12ZM176.559 121.12H182.613V127.174H176.559V121.12ZM194.721 121.12H200.775V127.174H194.721V121.12ZM212.883 121.12H218.937V127.174H212.883V121.12ZM0.991211 127.174H7.04526V133.228H0.991211V127.174ZM7.04526 127.174H13.0993V133.228H7.04526V127.174ZM19.1534 127.174H25.2074V133.228H19.1534V127.174ZM43.3696 127.174H49.4236V133.228H43.3696V127.174ZM49.4236 127.174H55.4777V133.228H49.4236V127.174ZM85.748 127.174H91.802V133.228H85.748V127.174ZM91.802 127.174H97.8561V133.228H91.802V127.174ZM97.8561 127.174H103.91V133.228H97.8561V127.174ZM103.91 127.174H109.964V133.228H103.91V127.174ZM116.018 127.174H122.072V133.228H116.018V127.174ZM128.126 127.174H134.18V133.228H128.126V127.174ZM140.234 127.174H146.288V133.228H140.234V127.174ZM152.343 127.174H158.397V133.228H152.343V127.174ZM158.397 127.174H164.451V133.228H158.397V127.174ZM188.667 127.174H194.721V133.228H188.667V127.174ZM0.991211 133.228H7.04526V139.282H0.991211V133.228ZM7.04526 133.228H13.0993V139.282H7.04526V133.228ZM13.0993 133.228H19.1534V139.282H13.0993V133.228ZM19.1534 133.228H25.2074V139.282H19.1534V133.228ZM37.3155 133.228H43.3696V139.282H37.3155V133.228ZM55.4777 133.228H61.5317V139.282H55.4777V133.228ZM61.5317 133.228H67.5858V139.282H61.5317V133.228ZM67.5858 133.228H73.6399V139.282H67.5858V133.228ZM73.6399 133.228H79.6939V139.282H73.6399V133.228ZM79.6939 133.228H85.748V139.282H79.6939V133.228ZM91.802 133.228H97.8561V139.282H91.802V133.228ZM103.91 133.228H109.964V139.282H103.91V133.228ZM122.072 133.228H128.126V139.282H122.072V133.228ZM128.126 133.228H134.18V139.282H128.126V133.228ZM140.234 133.228H146.288V139.282H140.234V133.228ZM152.343 133.228H158.397V139.282H152.343V133.228ZM182.613 133.228H188.667V139.282H182.613V133.228ZM194.721 133.228H200.775V139.282H194.721V133.228ZM212.883 133.228H218.937V139.282H212.883V133.228ZM0.991211 139.282H7.04526V145.336H0.991211V139.282ZM13.0993 139.282H19.1534V145.336H13.0993V139.282ZM31.2615 139.282H37.3155V145.336H31.2615V139.282ZM43.3696 139.282H49.4236V145.336H43.3696V139.282ZM49.4236 139.282H55.4777V145.336H49.4236V139.282ZM67.5858 139.282H73.6399V145.336H67.5858V139.282ZM79.6939 139.282H85.748V145.336H79.6939V139.282ZM85.748 139.282H91.802V145.336H85.748V139.282ZM97.8561 139.282H103.91V145.336H97.8561V139.282ZM103.91 139.282H109.964V145.336H103.91V139.282ZM109.964 139.282H116.018V145.336H109.964V139.282ZM116.018 139.282H122.072V145.336H116.018V139.282ZM122.072 139.282H128.126V145.336H122.072V139.282ZM146.288 139.282H152.343V145.336H146.288V139.282ZM164.451 139.282H170.505V145.336H164.451V139.282ZM170.505 139.282H176.559V145.336H170.505V139.282ZM182.613 139.282H188.667V145.336H182.613V139.282ZM200.775 139.282H206.829V145.336H200.775V139.282ZM206.829 139.282H212.883V145.336H206.829V139.282ZM212.883 139.282H218.937V145.336H212.883V139.282ZM0.991211 145.336H7.04526V151.39H0.991211V145.336ZM7.04526 145.336H13.0993V151.39H7.04526V145.336ZM19.1534 145.336H25.2074V151.39H19.1534V145.336ZM25.2074 145.336H31.2615V151.39H25.2074V145.336ZM31.2615 145.336H37.3155V151.39H31.2615V145.336ZM37.3155 145.336H43.3696V151.39H37.3155V145.336ZM43.3696 145.336H49.4236V151.39H43.3696V145.336ZM55.4777 145.336H61.5317V151.39H55.4777V145.336ZM73.6399 145.336H79.6939V151.39H73.6399V145.336ZM91.802 145.336H97.8561V151.39H91.802V145.336ZM97.8561 145.336H103.91V151.39H97.8561V145.336ZM103.91 145.336H109.964V151.39H103.91V145.336ZM109.964 145.336H116.018V151.39H109.964V145.336ZM116.018 145.336H122.072V151.39H116.018V145.336ZM134.18 145.336H140.234V151.39H134.18V145.336ZM140.234 145.336H146.288V151.39H140.234V145.336ZM146.288 145.336H152.343V151.39H146.288V145.336ZM158.397 145.336H164.451V151.39H158.397V145.336ZM170.505 145.336H176.559V151.39H170.505V145.336ZM176.559 145.336H182.613V151.39H176.559V145.336ZM182.613 145.336H188.667V151.39H182.613V145.336ZM188.667 145.336H194.721V151.39H188.667V145.336ZM194.721 145.336H200.775V151.39H194.721V145.336ZM200.775 145.336H206.829V151.39H200.775V145.336ZM206.829 145.336H212.883V151.39H206.829V145.336ZM218.937 145.336H224.991V151.39H218.937V145.336ZM7.04526 151.39H13.0993V157.444H7.04526V151.39ZM25.2074 151.39H31.2615V157.444H25.2074V151.39ZM55.4777 151.39H61.5317V157.444H55.4777V151.39ZM61.5317 151.39H67.5858V157.444H61.5317V151.39ZM73.6399 151.39H79.6939V157.444H73.6399V151.39ZM79.6939 151.39H85.748V157.444H79.6939V151.39ZM103.91 151.39H109.964V157.444H103.91V151.39ZM109.964 151.39H116.018V157.444H109.964V151.39ZM116.018 151.39H122.072V157.444H116.018V151.39ZM122.072 151.39H128.126V157.444H122.072V151.39ZM134.18 151.39H140.234V157.444H134.18V151.39ZM146.288 151.39H152.343V157.444H146.288V151.39ZM158.397 151.39H164.451V157.444H158.397V151.39ZM164.451 151.39H170.505V157.444H164.451V151.39ZM170.505 151.39H176.559V157.444H170.505V151.39ZM176.559 151.39H182.613V157.444H176.559V151.39ZM182.613 151.39H188.667V157.444H182.613V151.39ZM194.721 151.39H200.775V157.444H194.721V151.39ZM212.883 151.39H218.937V157.444H212.883V151.39ZM218.937 151.39H224.991V157.444H218.937V151.39ZM7.04526 157.444H13.0993V163.499H7.04526V157.444ZM31.2615 157.444H37.3155V163.499H31.2615V157.444ZM37.3155 157.444H43.3696V163.499H37.3155V157.444ZM43.3696 157.444H49.4236V163.499H43.3696V157.444ZM49.4236 157.444H55.4777V163.499H49.4236V157.444ZM55.4777 157.444H61.5317V163.499H55.4777V157.444ZM61.5317 157.444H67.5858V163.499H61.5317V157.444ZM67.5858 157.444H73.6399V163.499H67.5858V157.444ZM79.6939 157.444H85.748V163.499H79.6939V157.444ZM85.748 157.444H91.802V163.499H85.748V157.444ZM116.018 157.444H122.072V163.499H116.018V157.444ZM122.072 157.444H128.126V163.499H122.072V157.444ZM188.667 157.444H194.721V163.499H188.667V157.444ZM194.721 157.444H200.775V163.499H194.721V157.444ZM200.775 157.444H206.829V163.499H200.775V157.444ZM212.883 157.444H218.937V163.499H212.883V157.444ZM0.991211 163.499H7.04526V169.553H0.991211V163.499ZM13.0993 163.499H19.1534V169.553H13.0993V163.499ZM25.2074 163.499H31.2615V169.553H25.2074V163.499ZM31.2615 163.499H37.3155V169.553H31.2615V163.499ZM73.6399 163.499H79.6939V169.553H73.6399V163.499ZM85.748 163.499H91.802V169.553H85.748V163.499ZM91.802 163.499H97.8561V169.553H91.802V163.499ZM116.018 163.499H122.072V169.553H116.018V163.499ZM128.126 163.499H134.18V169.553H128.126V163.499ZM134.18 163.499H140.234V169.553H134.18V163.499ZM158.397 163.499H164.451V169.553H158.397V163.499ZM164.451 163.499H170.505V169.553H164.451V163.499ZM176.559 163.499H182.613V169.553H176.559V163.499ZM188.667 163.499H194.721V169.553H188.667V163.499ZM194.721 163.499H200.775V169.553H194.721V163.499ZM200.775 163.499H206.829V169.553H200.775V163.499ZM218.937 163.499H224.991V169.553H218.937V163.499ZM13.0993 169.553H19.1534V175.607H13.0993V169.553ZM25.2074 169.553H31.2615V175.607H25.2074V169.553ZM37.3155 169.553H43.3696V175.607H37.3155V169.553ZM43.3696 169.553H49.4236V175.607H43.3696V169.553ZM49.4236 169.553H55.4777V175.607H49.4236V169.553ZM55.4777 169.553H61.5317V175.607H55.4777V169.553ZM61.5317 169.553H67.5858V175.607H61.5317V169.553ZM109.964 169.553H116.018V175.607H109.964V169.553ZM116.018 169.553H122.072V175.607H116.018V169.553ZM122.072 169.553H128.126V175.607H122.072V169.553ZM128.126 169.553H134.18V175.607H128.126V169.553ZM140.234 169.553H146.288V175.607H140.234V169.553ZM152.343 169.553H158.397V175.607H152.343V169.553ZM170.505 169.553H176.559V175.607H170.505V169.553ZM176.559 169.553H182.613V175.607H176.559V169.553ZM182.613 169.553H188.667V175.607H182.613V169.553ZM188.667 169.553H194.721V175.607H188.667V169.553ZM194.721 169.553H200.775V175.607H194.721V169.553ZM206.829 169.553H212.883V175.607H206.829V169.553ZM49.4236 175.607H55.4777V181.661H49.4236V175.607ZM61.5317 175.607H67.5858V181.661H61.5317V175.607ZM73.6399 175.607H79.6939V181.661H73.6399V175.607ZM79.6939 175.607H85.748V181.661H79.6939V175.607ZM85.748 175.607H91.802V181.661H85.748V175.607ZM91.802 175.607H97.8561V181.661H91.802V175.607ZM97.8561 175.607H103.91V181.661H97.8561V175.607ZM109.964 175.607H116.018V181.661H109.964V175.607ZM134.18 175.607H140.234V181.661H134.18V175.607ZM140.234 175.607H146.288V181.661H140.234V175.607ZM146.288 175.607H152.343V181.661H146.288V175.607ZM164.451 175.607H170.505V181.661H164.451V175.607ZM170.505 175.607H176.559V181.661H170.505V175.607ZM194.721 175.607H200.775V181.661H194.721V175.607ZM200.775 175.607H206.829V181.661H200.775V175.607ZM206.829 175.607H212.883V181.661H206.829V175.607ZM218.937 175.607H224.991V181.661H218.937V175.607ZM0.991211 181.661H7.04526V187.715H0.991211V181.661ZM7.04526 181.661H13.0993V187.715H7.04526V181.661ZM13.0993 181.661H19.1534V187.715H13.0993V181.661ZM19.1534 181.661H25.2074V187.715H19.1534V181.661ZM25.2074 181.661H31.2615V187.715H25.2074V181.661ZM31.2615 181.661H37.3155V187.715H31.2615V181.661ZM37.3155 181.661H43.3696V187.715H37.3155V181.661ZM55.4777 181.661H61.5317V187.715H55.4777V181.661ZM61.5317 181.661H67.5858V187.715H61.5317V181.661ZM67.5858 181.661H73.6399V187.715H67.5858V181.661ZM91.802 181.661H97.8561V187.715H91.802V181.661ZM116.018 181.661H122.072V187.715H116.018V181.661ZM122.072 181.661H128.126V187.715H122.072V181.661ZM128.126 181.661H134.18V187.715H128.126V181.661ZM146.288 181.661H152.343V187.715H146.288V181.661ZM170.505 181.661H176.559V187.715H170.505V181.661ZM182.613 181.661H188.667V187.715H182.613V181.661ZM194.721 181.661H200.775V187.715H194.721V181.661ZM200.775 181.661H206.829V187.715H200.775V181.661ZM212.883 181.661H218.937V187.715H212.883V181.661ZM218.937 181.661H224.991V187.715H218.937V181.661ZM0.991211 187.715H7.04526V193.769H0.991211V187.715ZM37.3155 187.715H43.3696V193.769H37.3155V187.715ZM49.4236 187.715H55.4777V193.769H49.4236V187.715ZM67.5858 187.715H73.6399V193.769H67.5858V187.715ZM97.8561 187.715H103.91V193.769H97.8561V187.715ZM116.018 187.715H122.072V193.769H116.018V187.715ZM134.18 187.715H140.234V193.769H134.18V187.715ZM140.234 187.715H146.288V193.769H140.234V187.715ZM146.288 187.715H152.343V193.769H146.288V187.715ZM164.451 187.715H170.505V193.769H164.451V187.715ZM170.505 187.715H176.559V193.769H170.505V187.715ZM194.721 187.715H200.775V193.769H194.721V187.715ZM200.775 187.715H206.829V193.769H200.775V187.715ZM212.883 187.715H218.937V193.769H212.883V187.715ZM0.991211 193.769H7.04526V199.823H0.991211V193.769ZM13.0993 193.769H19.1534V199.823H13.0993V193.769ZM19.1534 193.769H25.2074V199.823H19.1534V193.769ZM25.2074 193.769H31.2615V199.823H25.2074V193.769ZM37.3155 193.769H43.3696V199.823H37.3155V193.769ZM55.4777 193.769H61.5317V199.823H55.4777V193.769ZM79.6939 193.769H85.748V199.823H79.6939V193.769ZM97.8561 193.769H103.91V199.823H97.8561V193.769ZM103.91 193.769H109.964V199.823H103.91V193.769ZM134.18 193.769H140.234V199.823H134.18V193.769ZM146.288 193.769H152.343V199.823H146.288V193.769ZM158.397 193.769H164.451V199.823H158.397V193.769ZM170.505 193.769H176.559V199.823H170.505V193.769ZM176.559 193.769H182.613V199.823H176.559V193.769ZM182.613 193.769H188.667V199.823H182.613V193.769ZM188.667 193.769H194.721V199.823H188.667V193.769ZM194.721 193.769H200.775V199.823H194.721V193.769ZM200.775 193.769H206.829V199.823H200.775V193.769ZM212.883 193.769H218.937V199.823H212.883V193.769ZM218.937 193.769H224.991V199.823H218.937V193.769ZM0.991211 199.823H7.04526V205.877H0.991211V199.823ZM13.0993 199.823H19.1534V205.877H13.0993V199.823ZM19.1534 199.823H25.2074V205.877H19.1534V199.823ZM25.2074 199.823H31.2615V205.877H25.2074V199.823ZM37.3155 199.823H43.3696V205.877H37.3155V199.823ZM49.4236 199.823H55.4777V205.877H49.4236V199.823ZM55.4777 199.823H61.5317V205.877H55.4777V199.823ZM61.5317 199.823H67.5858V205.877H61.5317V199.823ZM73.6399 199.823H79.6939V205.877H73.6399V199.823ZM85.748 199.823H91.802V205.877H85.748V199.823ZM97.8561 199.823H103.91V205.877H97.8561V199.823ZM109.964 199.823H116.018V205.877H109.964V199.823ZM122.072 199.823H128.126V205.877H122.072V199.823ZM134.18 199.823H140.234V205.877H134.18V199.823ZM146.288 199.823H152.343V205.877H146.288V199.823ZM158.397 199.823H164.451V205.877H158.397V199.823ZM182.613 199.823H188.667V205.877H182.613V199.823ZM194.721 199.823H200.775V205.877H194.721V199.823ZM212.883 199.823H218.937V205.877H212.883V199.823ZM0.991211 205.877H7.04526V211.931H0.991211V205.877ZM13.0993 205.877H19.1534V211.931H13.0993V205.877ZM19.1534 205.877H25.2074V211.931H19.1534V205.877ZM25.2074 205.877H31.2615V211.931H25.2074V205.877ZM37.3155 205.877H43.3696V211.931H37.3155V205.877ZM49.4236 205.877H55.4777V211.931H49.4236V205.877ZM67.5858 205.877H73.6399V211.931H67.5858V205.877ZM91.802 205.877H97.8561V211.931H91.802V205.877ZM103.91 205.877H109.964V211.931H103.91V205.877ZM109.964 205.877H116.018V211.931H109.964V205.877ZM116.018 205.877H122.072V211.931H116.018V205.877ZM122.072 205.877H128.126V211.931H122.072V205.877ZM134.18 205.877H140.234V211.931H134.18V205.877ZM140.234 205.877H146.288V211.931H140.234V205.877ZM146.288 205.877H152.343V211.931H146.288V205.877ZM152.343 205.877H158.397V211.931H152.343V205.877ZM158.397 205.877H164.451V211.931H158.397V205.877ZM182.613 205.877H188.667V211.931H182.613V205.877ZM188.667 205.877H194.721V211.931H188.667V205.877ZM194.721 205.877H200.775V211.931H194.721V205.877ZM200.775 205.877H206.829V211.931H200.775V205.877ZM212.883 205.877H218.937V211.931H212.883V205.877ZM0.991211 211.931H7.04526V217.985H0.991211V211.931ZM37.3155 211.931H43.3696V217.985H37.3155V211.931ZM49.4236 211.931H55.4777V217.985H49.4236V211.931ZM55.4777 211.931H61.5317V217.985H55.4777V211.931ZM61.5317 211.931H67.5858V217.985H61.5317V211.931ZM73.6399 211.931H79.6939V217.985H73.6399V211.931ZM85.748 211.931H91.802V217.985H85.748V211.931ZM91.802 211.931H97.8561V217.985H91.802V211.931ZM97.8561 211.931H103.91V217.985H97.8561V211.931ZM103.91 211.931H109.964V217.985H103.91V211.931ZM122.072 211.931H128.126V217.985H122.072V211.931ZM152.343 211.931H158.397V217.985H152.343V211.931ZM158.397 211.931H164.451V217.985H158.397V211.931ZM176.559 211.931H182.613V217.985H176.559V211.931ZM206.829 211.931H212.883V217.985H206.829V211.931ZM0.991211 217.985H7.04526V224.039H0.991211V217.985ZM7.04526 217.985H13.0993V224.039H7.04526V217.985ZM13.0993 217.985H19.1534V224.039H13.0993V217.985ZM19.1534 217.985H25.2074V224.039H19.1534V217.985ZM25.2074 217.985H31.2615V224.039H25.2074V217.985ZM31.2615 217.985H37.3155V224.039H31.2615V217.985ZM37.3155 217.985H43.3696V224.039H37.3155V217.985ZM67.5858 217.985H73.6399V224.039H67.5858V217.985ZM79.6939 217.985H85.748V224.039H79.6939V217.985ZM85.748 217.985H91.802V224.039H85.748V217.985ZM91.802 217.985H97.8561V224.039H91.802V217.985ZM97.8561 217.985H103.91V224.039H97.8561V217.985ZM103.91 217.985H109.964V224.039H103.91V217.985ZM116.018 217.985H122.072V224.039H116.018V217.985ZM122.072 217.985H128.126V224.039H122.072V217.985ZM146.288 217.985H152.343V224.039H146.288V217.985ZM152.343 217.985H158.397V224.039H152.343V217.985ZM158.397 217.985H164.451V224.039H158.397V217.985ZM176.559 217.985H182.613V224.039H176.559V217.985ZM182.613 217.985H188.667V224.039H182.613V217.985ZM194.721 217.985H200.775V224.039H194.721V217.985ZM200.775 217.985H206.829V224.039H200.775V217.985ZM206.829 217.985H212.883V224.039H206.829V217.985ZM212.883 217.985H218.937V224.039H212.883V217.985ZM218.937 217.985H224.991V224.039H218.937V217.985Z" fill="black"/>
</g>
<defs>
<clipPath id="clip0_2617_2352">
<rect width="224" height="224" fill="white" transform="translate(0.957031 0.203125)"/>
</clipPath>
</defs>
</svg>
