<svg width="256" height="256" viewBox="0 0 224 224" fill="none" xmlns="http://www.w3.org/2000/svg">
<path d="M14.3359 14.3359H21.0714V21.0714H14.3359V14.3359ZM21.0714 14.3359H27.8068V21.0714H21.0714V14.3359ZM27.8068 14.3359H34.5423V21.0714H27.8068V14.3359ZM34.5423 14.3359H41.2777V21.0714H34.5423V14.3359ZM41.2777 14.3359H48.0132V21.0714H41.2777V14.3359ZM48.0132 14.3359H54.7486V21.0714H48.0132V14.3359ZM54.7486 14.3359H61.4841V21.0714H54.7486V14.3359ZM68.2195 14.3359H74.955V21.0714H68.2195V14.3359ZM81.6904 14.3359H88.4259V21.0714H81.6904V14.3359ZM88.4259 14.3359H95.1613V21.0714H88.4259V14.3359ZM101.897 14.3359H108.632V21.0714H101.897V14.3359ZM108.632 14.3359H115.368V21.0714H108.632V14.3359ZM115.368 14.3359H122.103V21.0714H115.368V14.3359ZM122.103 14.3359H128.839V21.0714H122.103V14.3359ZM128.839 14.3359H135.574V21.0714H128.839V14.3359ZM135.574 14.3359H142.309V21.0714H135.574V14.3359ZM149.045 14.3359H155.78V21.0714H149.045V14.3359ZM162.516 14.3359H169.251V21.0714H162.516V14.3359ZM169.251 14.3359H175.987V21.0714H169.251V14.3359ZM175.987 14.3359H182.722V21.0714H175.987V14.3359ZM182.722 14.3359H189.458V21.0714H182.722V14.3359ZM189.458 14.3359H196.193V21.0714H189.458V14.3359ZM196.193 14.3359H202.928V21.0714H196.193V14.3359ZM202.928 14.3359H209.664V21.0714H202.928V14.3359ZM14.3359 21.0714H21.0714V27.8068H14.3359V21.0714ZM54.7486 21.0714H61.4841V27.8068H54.7486V21.0714ZM68.2195 21.0714H74.955V27.8068H68.2195V21.0714ZM74.955 21.0714H81.6904V27.8068H74.955V21.0714ZM81.6904 21.0714H88.4259V27.8068H81.6904V21.0714ZM95.1613 21.0714H101.897V27.8068H95.1613V21.0714ZM101.897 21.0714H108.632V27.8068H101.897V21.0714ZM108.632 21.0714H115.368V27.8068H108.632V21.0714ZM115.368 21.0714H122.103V27.8068H115.368V21.0714ZM122.103 21.0714H128.839V27.8068H122.103V21.0714ZM128.839 21.0714H135.574V27.8068H128.839V21.0714ZM142.309 21.0714H149.045V27.8068H142.309V21.0714ZM162.516 21.0714H169.251V27.8068H162.516V21.0714ZM202.928 21.0714H209.664V27.8068H202.928V21.0714ZM14.3359 27.8068H21.0714V34.5423H14.3359V27.8068ZM27.8068 27.8068H34.5423V34.5423H27.8068V27.8068ZM34.5423 27.8068H41.2777V34.5423H34.5423V27.8068ZM41.2777 27.8068H48.0132V34.5423H41.2777V27.8068ZM54.7486 27.8068H61.4841V34.5423H54.7486V27.8068ZM68.2195 27.8068H74.955V34.5423H68.2195V27.8068ZM74.955 27.8068H81.6904V34.5423H74.955V27.8068ZM88.4259 27.8068H95.1613V34.5423H88.4259V27.8068ZM95.1613 27.8068H101.897V34.5423H95.1613V27.8068ZM101.897 27.8068H108.632V34.5423H101.897V27.8068ZM108.632 27.8068H115.368V34.5423H108.632V27.8068ZM122.103 27.8068H128.839V34.5423H122.103V27.8068ZM149.045 27.8068H155.78V34.5423H149.045V27.8068ZM162.516 27.8068H169.251V34.5423H162.516V27.8068ZM175.987 27.8068H182.722V34.5423H175.987V27.8068ZM182.722 27.8068H189.458V34.5423H182.722V27.8068ZM189.458 27.8068H196.193V34.5423H189.458V27.8068ZM202.928 27.8068H209.664V34.5423H202.928V27.8068ZM14.3359 34.5423H21.0714V41.2777H14.3359V34.5423ZM27.8068 34.5423H34.5423V41.2777H27.8068V34.5423ZM34.5423 34.5423H41.2777V41.2777H34.5423V34.5423ZM41.2777 34.5423H48.0132V41.2777H41.2777V34.5423ZM54.7486 34.5423H61.4841V41.2777H54.7486V34.5423ZM68.2195 34.5423H74.955V41.2777H68.2195V34.5423ZM81.6904 34.5423H88.4259V41.2777H81.6904V34.5423ZM95.1613 34.5423H101.897V41.2777H95.1613V34.5423ZM115.368 34.5423H122.103V41.2777H115.368V34.5423ZM135.574 34.5423H142.309V41.2777H135.574V34.5423ZM142.309 34.5423H149.045V41.2777H142.309V34.5423ZM162.516 34.5423H169.251V41.2777H162.516V34.5423ZM175.987 34.5423H182.722V41.2777H175.987V34.5423ZM182.722 34.5423H189.458V41.2777H182.722V34.5423ZM189.458 34.5423H196.193V41.2777H189.458V34.5423ZM202.928 34.5423H209.664V41.2777H202.928V34.5423ZM14.3359 41.2777H21.0714V48.0132H14.3359V41.2777ZM27.8068 41.2777H34.5423V48.0132H27.8068V41.2777ZM34.5423 41.2777H41.2777V48.0132H34.5423V41.2777ZM41.2777 41.2777H48.0132V48.0132H41.2777V41.2777ZM54.7486 41.2777H61.4841V48.0132H54.7486V41.2777ZM68.2195 41.2777H74.955V48.0132H68.2195V41.2777ZM81.6904 41.2777H88.4259V48.0132H81.6904V41.2777ZM95.1613 41.2777H101.897V48.0132H95.1613V41.2777ZM101.897 41.2777H108.632V48.0132H101.897V41.2777ZM128.839 41.2777H135.574V48.0132H128.839V41.2777ZM142.309 41.2777H149.045V48.0132H142.309V41.2777ZM162.516 41.2777H169.251V48.0132H162.516V41.2777ZM175.987 41.2777H182.722V48.0132H175.987V41.2777ZM182.722 41.2777H189.458V48.0132H182.722V41.2777ZM189.458 41.2777H196.193V48.0132H189.458V41.2777ZM202.928 41.2777H209.664V48.0132H202.928V41.2777ZM14.3359 48.0132H21.0714V54.7486H14.3359V48.0132ZM54.7486 48.0132H61.4841V54.7486H54.7486V48.0132ZM81.6904 48.0132H88.4259V54.7486H81.6904V48.0132ZM95.1613 48.0132H101.897V54.7486H95.1613V48.0132ZM108.632 48.0132H115.368V54.7486H108.632V48.0132ZM115.368 48.0132H122.103V54.7486H115.368V48.0132ZM135.574 48.0132H142.309V54.7486H135.574V48.0132ZM142.309 48.0132H149.045V54.7486H142.309V48.0132ZM162.516 48.0132H169.251V54.7486H162.516V48.0132ZM202.928 48.0132H209.664V54.7486H202.928V48.0132ZM14.3359 54.7486H21.0714V61.4841H14.3359V54.7486ZM21.0714 54.7486H27.8068V61.4841H21.0714V54.7486ZM27.8068 54.7486H34.5423V61.4841H27.8068V54.7486ZM34.5423 54.7486H41.2777V61.4841H34.5423V54.7486ZM41.2777 54.7486H48.0132V61.4841H41.2777V54.7486ZM48.0132 54.7486H54.7486V61.4841H48.0132V54.7486ZM54.7486 54.7486H61.4841V61.4841H54.7486V54.7486ZM68.2195 54.7486H74.955V61.4841H68.2195V54.7486ZM81.6904 54.7486H88.4259V61.4841H81.6904V54.7486ZM95.1613 54.7486H101.897V61.4841H95.1613V54.7486ZM108.632 54.7486H115.368V61.4841H108.632V54.7486ZM122.103 54.7486H128.839V61.4841H122.103V54.7486ZM135.574 54.7486H142.309V61.4841H135.574V54.7486ZM149.045 54.7486H155.78V61.4841H149.045V54.7486ZM162.516 54.7486H169.251V61.4841H162.516V54.7486ZM169.251 54.7486H175.987V61.4841H169.251V54.7486ZM175.987 54.7486H182.722V61.4841H175.987V54.7486ZM182.722 54.7486H189.458V61.4841H182.722V54.7486ZM189.458 54.7486H196.193V61.4841H189.458V54.7486ZM196.193 54.7486H202.928V61.4841H196.193V54.7486ZM202.928 54.7486H209.664V61.4841H202.928V54.7486ZM68.2195 61.4841H74.955V68.2195H68.2195V61.4841ZM95.1613 61.4841H101.897V68.2195H95.1613V61.4841ZM115.368 61.4841H122.103V68.2195H115.368V61.4841ZM122.103 61.4841H128.839V68.2195H122.103V61.4841ZM142.309 61.4841H149.045V68.2195H142.309V61.4841ZM149.045 61.4841H155.78V68.2195H149.045V61.4841ZM21.0714 68.2195H27.8068V74.955H21.0714V68.2195ZM27.8068 68.2195H34.5423V74.955H27.8068V68.2195ZM41.2777 68.2195H48.0132V74.955H41.2777V68.2195ZM54.7486 68.2195H61.4841V74.955H54.7486V68.2195ZM61.4841 68.2195H68.2195V74.955H61.4841V68.2195ZM81.6904 68.2195H88.4259V74.955H81.6904V68.2195ZM101.897 68.2195H108.632V74.955H101.897V68.2195ZM115.368 68.2195H122.103V74.955H115.368V68.2195ZM122.103 68.2195H128.839V74.955H122.103V68.2195ZM142.309 68.2195H149.045V74.955H142.309V68.2195ZM162.516 68.2195H169.251V74.955H162.516V68.2195ZM175.987 68.2195H182.722V74.955H175.987V68.2195ZM182.722 68.2195H189.458V74.955H182.722V68.2195ZM189.458 68.2195H196.193V74.955H189.458V68.2195ZM196.193 68.2195H202.928V74.955H196.193V68.2195ZM202.928 68.2195H209.664V74.955H202.928V68.2195ZM14.3359 74.955H21.0714V81.6904H14.3359V74.955ZM21.0714 74.955H27.8068V81.6904H21.0714V74.955ZM27.8068 74.955H34.5423V81.6904H27.8068V74.955ZM61.4841 74.955H68.2195V81.6904H61.4841V74.955ZM88.4259 74.955H95.1613V81.6904H88.4259V74.955ZM101.897 74.955H108.632V81.6904H101.897V74.955ZM115.368 74.955H122.103V81.6904H115.368V74.955ZM128.839 74.955H135.574V81.6904H128.839V74.955ZM162.516 74.955H169.251V81.6904H162.516V74.955ZM169.251 74.955H175.987V81.6904H169.251V74.955ZM189.458 74.955H196.193V81.6904H189.458V74.955ZM202.928 74.955H209.664V81.6904H202.928V74.955ZM14.3359 81.6904H21.0714V88.4259H14.3359V81.6904ZM21.0714 81.6904H27.8068V88.4259H21.0714V81.6904ZM27.8068 81.6904H34.5423V88.4259H27.8068V81.6904ZM54.7486 81.6904H61.4841V88.4259H54.7486V81.6904ZM68.2195 81.6904H74.955V88.4259H68.2195V81.6904ZM115.368 81.6904H122.103V88.4259H115.368V81.6904ZM135.574 81.6904H142.309V88.4259H135.574V81.6904ZM149.045 81.6904H155.78V88.4259H149.045V81.6904ZM169.251 81.6904H175.987V88.4259H169.251V81.6904ZM182.722 81.6904H189.458V88.4259H182.722V81.6904ZM196.193 81.6904H202.928V88.4259H196.193V81.6904ZM202.928 81.6904H209.664V88.4259H202.928V81.6904ZM14.3359 88.4259H21.0714V95.1613H14.3359V88.4259ZM41.2777 88.4259H48.0132V95.1613H41.2777V88.4259ZM61.4841 88.4259H68.2195V95.1613H61.4841V88.4259ZM81.6904 88.4259H88.4259V95.1613H81.6904V88.4259ZM88.4259 88.4259H95.1613V95.1613H88.4259V88.4259ZM108.632 88.4259H115.368V95.1613H108.632V88.4259ZM128.839 88.4259H135.574V95.1613H128.839V88.4259ZM149.045 88.4259H155.78V95.1613H149.045V88.4259ZM155.78 88.4259H162.516V95.1613H155.78V88.4259ZM162.516 88.4259H169.251V95.1613H162.516V88.4259ZM175.987 88.4259H182.722V95.1613H175.987V88.4259ZM196.193 88.4259H202.928V95.1613H196.193V88.4259ZM21.0714 95.1613H27.8068V101.897H21.0714V95.1613ZM41.2777 95.1613H48.0132V101.897H41.2777V95.1613ZM54.7486 95.1613H61.4841V101.897H54.7486V95.1613ZM74.955 95.1613H81.6904V101.897H74.955V95.1613ZM81.6904 95.1613H88.4259V101.897H81.6904V95.1613ZM88.4259 95.1613H95.1613V101.897H88.4259V95.1613ZM101.897 95.1613H108.632V101.897H101.897V95.1613ZM122.103 95.1613H128.839V101.897H122.103V95.1613ZM128.839 95.1613H135.574V101.897H128.839V95.1613ZM142.309 95.1613H149.045V101.897H142.309V95.1613ZM149.045 95.1613H155.78V101.897H149.045V95.1613ZM162.516 95.1613H169.251V101.897H162.516V95.1613ZM169.251 95.1613H175.987V101.897H169.251V95.1613ZM27.8068 101.897H34.5423V108.632H27.8068V101.897ZM34.5423 101.897H41.2777V108.632H34.5423V101.897ZM41.2777 101.897H48.0132V108.632H41.2777V101.897ZM48.0132 101.897H54.7486V108.632H48.0132V101.897ZM81.6904 101.897H88.4259V108.632H81.6904V101.897ZM95.1613 101.897H101.897V108.632H95.1613V101.897ZM101.897 101.897H108.632V108.632H101.897V101.897ZM108.632 101.897H115.368V108.632H108.632V101.897ZM128.839 101.897H135.574V108.632H128.839V101.897ZM149.045 101.897H155.78V108.632H149.045V101.897ZM155.78 101.897H162.516V108.632H155.78V101.897ZM162.516 101.897H169.251V108.632H162.516V101.897ZM169.251 101.897H175.987V108.632H169.251V101.897ZM196.193 101.897H202.928V108.632H196.193V101.897ZM202.928 101.897H209.664V108.632H202.928V101.897ZM14.3359 108.632H21.0714V115.368H14.3359V108.632ZM27.8068 108.632H34.5423V115.368H27.8068V108.632ZM48.0132 108.632H54.7486V115.368H48.0132V108.632ZM54.7486 108.632H61.4841V115.368H54.7486V108.632ZM61.4841 108.632H68.2195V115.368H61.4841V108.632ZM74.955 108.632H81.6904V115.368H74.955V108.632ZM95.1613 108.632H101.897V115.368H95.1613V108.632ZM108.632 108.632H115.368V115.368H108.632V108.632ZM135.574 108.632H142.309V115.368H135.574V108.632ZM162.516 108.632H169.251V115.368H162.516V108.632ZM169.251 108.632H175.987V115.368H169.251V108.632ZM189.458 108.632H196.193V115.368H189.458V108.632ZM202.928 108.632H209.664V115.368H202.928V108.632ZM21.0714 115.368H27.8068V122.103H21.0714V115.368ZM34.5423 115.368H41.2777V122.103H34.5423V115.368ZM41.2777 115.368H48.0132V122.103H41.2777V115.368ZM61.4841 115.368H68.2195V122.103H61.4841V115.368ZM115.368 115.368H122.103V122.103H115.368V115.368ZM122.103 115.368H128.839V122.103H122.103V115.368ZM128.839 115.368H135.574V122.103H128.839V115.368ZM135.574 115.368H142.309V122.103H135.574V115.368ZM155.78 115.368H162.516V122.103H155.78V115.368ZM162.516 115.368H169.251V122.103H162.516V115.368ZM169.251 115.368H175.987V122.103H169.251V115.368ZM196.193 115.368H202.928V122.103H196.193V115.368ZM202.928 115.368H209.664V122.103H202.928V115.368ZM14.3359 122.103H21.0714V128.839H14.3359V122.103ZM21.0714 122.103H27.8068V128.839H21.0714V122.103ZM48.0132 122.103H54.7486V128.839H48.0132V122.103ZM54.7486 122.103H61.4841V128.839H54.7486V122.103ZM61.4841 122.103H68.2195V128.839H61.4841V122.103ZM68.2195 122.103H74.955V128.839H68.2195V122.103ZM81.6904 122.103H88.4259V128.839H81.6904V122.103ZM95.1613 122.103H101.897V128.839H95.1613V122.103ZM101.897 122.103H108.632V128.839H101.897V122.103ZM115.368 122.103H122.103V128.839H115.368V122.103ZM122.103 122.103H128.839V128.839H122.103V122.103ZM135.574 122.103H142.309V128.839H135.574V122.103ZM149.045 122.103H155.78V128.839H149.045V122.103ZM162.516 122.103H169.251V128.839H162.516V122.103ZM182.722 122.103H189.458V128.839H182.722V122.103ZM196.193 122.103H202.928V128.839H196.193V122.103ZM27.8068 128.839H34.5423V135.574H27.8068V128.839ZM68.2195 128.839H74.955V135.574H68.2195V128.839ZM88.4259 128.839H95.1613V135.574H88.4259V128.839ZM115.368 128.839H122.103V135.574H115.368V128.839ZM122.103 128.839H128.839V135.574H122.103V128.839ZM128.839 128.839H135.574V135.574H128.839V128.839ZM135.574 128.839H142.309V135.574H135.574V128.839ZM155.78 128.839H162.516V135.574H155.78V128.839ZM162.516 128.839H169.251V135.574H162.516V128.839ZM169.251 128.839H175.987V135.574H169.251V128.839ZM182.722 128.839H189.458V135.574H182.722V128.839ZM196.193 128.839H202.928V135.574H196.193V128.839ZM202.928 128.839H209.664V135.574H202.928V128.839ZM14.3359 135.574H21.0714V142.309H14.3359V135.574ZM54.7486 135.574H61.4841V142.309H54.7486V135.574ZM61.4841 135.574H68.2195V142.309H61.4841V135.574ZM74.955 135.574H81.6904V142.309H74.955V135.574ZM95.1613 135.574H101.897V142.309H95.1613V135.574ZM101.897 135.574H108.632V142.309H101.897V135.574ZM108.632 135.574H115.368V142.309H108.632V135.574ZM115.368 135.574H122.103V142.309H115.368V135.574ZM122.103 135.574H128.839V142.309H122.103V135.574ZM149.045 135.574H155.78V142.309H149.045V135.574ZM155.78 135.574H162.516V142.309H155.78V135.574ZM175.987 135.574H182.722V142.309H175.987V135.574ZM182.722 135.574H189.458V142.309H182.722V135.574ZM189.458 135.574H196.193V142.309H189.458V135.574ZM196.193 135.574H202.928V142.309H196.193V135.574ZM202.928 135.574H209.664V142.309H202.928V135.574ZM21.0714 142.309H27.8068V149.045H21.0714V142.309ZM27.8068 142.309H34.5423V149.045H27.8068V142.309ZM34.5423 142.309H41.2777V149.045H34.5423V142.309ZM61.4841 142.309H68.2195V149.045H61.4841V142.309ZM68.2195 142.309H74.955V149.045H68.2195V142.309ZM88.4259 142.309H95.1613V149.045H88.4259V142.309ZM122.103 142.309H128.839V149.045H122.103V142.309ZM128.839 142.309H135.574V149.045H128.839V142.309ZM135.574 142.309H142.309V149.045H135.574V142.309ZM142.309 142.309H149.045V149.045H142.309V142.309ZM162.516 142.309H169.251V149.045H162.516V142.309ZM169.251 142.309H175.987V149.045H169.251V142.309ZM202.928 142.309H209.664V149.045H202.928V142.309ZM14.3359 149.045H21.0714V155.78H14.3359V149.045ZM27.8068 149.045H34.5423V155.78H27.8068V149.045ZM54.7486 149.045H61.4841V155.78H54.7486V149.045ZM88.4259 149.045H95.1613V155.78H88.4259V149.045ZM101.897 149.045H108.632V155.78H101.897V149.045ZM115.368 149.045H122.103V155.78H115.368V149.045ZM128.839 149.045H135.574V155.78H128.839V149.045ZM135.574 149.045H142.309V155.78H135.574V149.045ZM149.045 149.045H155.78V155.78H149.045V149.045ZM155.78 149.045H162.516V155.78H155.78V149.045ZM162.516 149.045H169.251V155.78H162.516V149.045ZM169.251 149.045H175.987V155.78H169.251V149.045ZM175.987 149.045H182.722V155.78H175.987V149.045ZM182.722 149.045H189.458V155.78H182.722V149.045ZM68.2195 155.78H74.955V162.516H68.2195V155.78ZM74.955 155.78H81.6904V162.516H74.955V155.78ZM81.6904 155.78H88.4259V162.516H81.6904V155.78ZM108.632 155.78H115.368V162.516H108.632V155.78ZM122.103 155.78H128.839V162.516H122.103V155.78ZM149.045 155.78H155.78V162.516H149.045V155.78ZM175.987 155.78H182.722V162.516H175.987V155.78ZM196.193 155.78H202.928V162.516H196.193V155.78ZM202.928 155.78H209.664V162.516H202.928V155.78ZM14.3359 162.516H21.0714V169.251H14.3359V162.516ZM21.0714 162.516H27.8068V169.251H21.0714V162.516ZM27.8068 162.516H34.5423V169.251H27.8068V162.516ZM34.5423 162.516H41.2777V169.251H34.5423V162.516ZM41.2777 162.516H48.0132V169.251H41.2777V162.516ZM48.0132 162.516H54.7486V169.251H48.0132V162.516ZM54.7486 162.516H61.4841V169.251H54.7486V162.516ZM68.2195 162.516H74.955V169.251H68.2195V162.516ZM88.4259 162.516H95.1613V169.251H88.4259V162.516ZM101.897 162.516H108.632V169.251H101.897V162.516ZM108.632 162.516H115.368V169.251H108.632V162.516ZM122.103 162.516H128.839V169.251H122.103V162.516ZM128.839 162.516H135.574V169.251H128.839V162.516ZM142.309 162.516H149.045V169.251H142.309V162.516ZM149.045 162.516H155.78V169.251H149.045V162.516ZM162.516 162.516H169.251V169.251H162.516V162.516ZM175.987 162.516H182.722V169.251H175.987V162.516ZM189.458 162.516H196.193V169.251H189.458V162.516ZM196.193 162.516H202.928V169.251H196.193V162.516ZM202.928 162.516H209.664V169.251H202.928V162.516ZM14.3359 169.251H21.0714V175.987H14.3359V169.251ZM54.7486 169.251H61.4841V175.987H54.7486V169.251ZM95.1613 169.251H101.897V175.987H95.1613V169.251ZM108.632 169.251H115.368V175.987H108.632V169.251ZM122.103 169.251H128.839V175.987H122.103V169.251ZM149.045 169.251H155.78V175.987H149.045V169.251ZM175.987 169.251H182.722V175.987H175.987V169.251ZM14.3359 175.987H21.0714V182.722H14.3359V175.987ZM27.8068 175.987H34.5423V182.722H27.8068V175.987ZM34.5423 175.987H41.2777V182.722H34.5423V175.987ZM41.2777 175.987H48.0132V182.722H41.2777V175.987ZM54.7486 175.987H61.4841V182.722H54.7486V175.987ZM68.2195 175.987H74.955V182.722H68.2195V175.987ZM74.955 175.987H81.6904V182.722H74.955V175.987ZM88.4259 175.987H95.1613V182.722H88.4259V175.987ZM95.1613 175.987H101.897V182.722H95.1613V175.987ZM101.897 175.987H108.632V182.722H101.897V175.987ZM108.632 175.987H115.368V182.722H108.632V175.987ZM149.045 175.987H155.78V182.722H149.045V175.987ZM155.78 175.987H162.516V182.722H155.78V175.987ZM162.516 175.987H169.251V182.722H162.516V175.987ZM169.251 175.987H175.987V182.722H169.251V175.987ZM175.987 175.987H182.722V182.722H175.987V175.987ZM182.722 175.987H189.458V182.722H182.722V175.987ZM196.193 175.987H202.928V182.722H196.193V175.987ZM202.928 175.987H209.664V182.722H202.928V175.987ZM14.3359 182.722H21.0714V189.458H14.3359V182.722ZM27.8068 182.722H34.5423V189.458H27.8068V182.722ZM34.5423 182.722H41.2777V189.458H34.5423V182.722ZM41.2777 182.722H48.0132V189.458H41.2777V182.722ZM54.7486 182.722H61.4841V189.458H54.7486V182.722ZM74.955 182.722H81.6904V189.458H74.955V182.722ZM81.6904 182.722H88.4259V189.458H81.6904V182.722ZM101.897 182.722H108.632V189.458H101.897V182.722ZM115.368 182.722H122.103V189.458H115.368V182.722ZM149.045 182.722H155.78V189.458H149.045V182.722ZM155.78 182.722H162.516V189.458H155.78V182.722ZM175.987 182.722H182.722V189.458H175.987V182.722ZM182.722 182.722H189.458V189.458H182.722V182.722ZM14.3359 189.458H21.0714V196.193H14.3359V189.458ZM27.8068 189.458H34.5423V196.193H27.8068V189.458ZM34.5423 189.458H41.2777V196.193H34.5423V189.458ZM41.2777 189.458H48.0132V196.193H41.2777V189.458ZM54.7486 189.458H61.4841V196.193H54.7486V189.458ZM68.2195 189.458H74.955V196.193H68.2195V189.458ZM81.6904 189.458H88.4259V196.193H81.6904V189.458ZM101.897 189.458H108.632V196.193H101.897V189.458ZM128.839 189.458H135.574V196.193H128.839V189.458ZM142.309 189.458H149.045V196.193H142.309V189.458ZM169.251 189.458H175.987V196.193H169.251V189.458ZM175.987 189.458H182.722V196.193H175.987V189.458ZM189.458 189.458H196.193V196.193H189.458V189.458ZM202.928 189.458H209.664V196.193H202.928V189.458ZM14.3359 196.193H21.0714V202.928H14.3359V196.193ZM54.7486 196.193H61.4841V202.928H54.7486V196.193ZM68.2195 196.193H74.955V202.928H68.2195V196.193ZM74.955 196.193H81.6904V202.928H74.955V196.193ZM108.632 196.193H115.368V202.928H108.632V196.193ZM115.368 196.193H122.103V202.928H115.368V196.193ZM128.839 196.193H135.574V202.928H128.839V196.193ZM149.045 196.193H155.78V202.928H149.045V196.193ZM162.516 196.193H169.251V202.928H162.516V196.193ZM169.251 196.193H175.987V202.928H169.251V196.193ZM196.193 196.193H202.928V202.928H196.193V196.193ZM14.3359 202.928H21.0714V209.664H14.3359V202.928ZM21.0714 202.928H27.8068V209.664H21.0714V202.928ZM27.8068 202.928H34.5423V209.664H27.8068V202.928ZM34.5423 202.928H41.2777V209.664H34.5423V202.928ZM41.2777 202.928H48.0132V209.664H41.2777V202.928ZM48.0132 202.928H54.7486V209.664H48.0132V202.928ZM54.7486 202.928H61.4841V209.664H54.7486V202.928ZM74.955 202.928H81.6904V209.664H74.955V202.928ZM95.1613 202.928H101.897V209.664H95.1613V202.928ZM101.897 202.928H108.632V209.664H101.897V202.928ZM108.632 202.928H115.368V209.664H108.632V202.928ZM122.103 202.928H128.839V209.664H122.103V202.928ZM128.839 202.928H135.574V209.664H128.839V202.928ZM149.045 202.928H155.78V209.664H149.045V202.928ZM175.987 202.928H182.722V209.664H175.987V202.928ZM182.722 202.928H189.458V209.664H182.722V202.928ZM196.193 202.928H202.928V209.664H196.193V202.928ZM202.928 202.928H209.664V209.664H202.928V202.928Z" fill="black"/>
</svg>
