<svg width="128" height="128" viewBox="0 0 24 24" fill="none" xmlns="http://www.w3.org/2000/svg">
<path d="M19.8727 11.8851C19.8727 11.0729 19.7587 10.387 19.5306 9.82766C19.3102 9.26827 19.0024 8.83916 18.6071 8.54031C18.2119 8.24912 17.7634 8.10353 17.2618 8.10353C16.8437 8.0882 16.4789 8.17633 16.1672 8.3679C15.8556 8.56713 15.5857 8.83916 15.3577 9.18398C15.1373 9.52881 14.9435 9.92727 14.7762 10.3794C14.6166 10.8315 14.4798 11.3142 14.3658 11.8276L13.8641 13.9426C13.6361 14.9694 13.3321 15.9119 12.952 16.7701C12.572 17.6284 12.1045 18.3717 11.5496 19C10.9948 19.6284 10.3411 20.115 9.5886 20.4598C8.8361 20.8123 7.9734 20.9923 7.00047 21C5.5715 20.9923 4.33254 20.6245 3.28361 19.8966C2.24228 19.1763 1.43278 18.1341 0.855104 16.7701C0.285034 15.4138 -1.90735e-06 13.7778 -1.90735e-06 11.8621V7.36364V5.06947C-1.90735e-06 3.9266 0.926481 3.00011 2.06936 3.00011C3.21223 3.00011 4.13872 3.9266 4.13872 5.06947V7.36364V11.8047C4.13872 12.6476 4.26033 13.3794 4.50356 14C4.74679 14.6284 5.08503 15.115 5.51829 15.4598C5.95154 15.8046 6.4494 15.977 7.01187 15.977C7.53634 15.977 7.9772 15.82 8.33444 15.5058C8.69168 15.1993 8.99572 14.7472 9.24656 14.1495C9.49739 13.5594 9.72542 12.8353 9.93064 11.9771L10.5691 9.41387C11.048 7.4292 11.7967 5.86216 12.8152 4.71275C13.8337 3.56333 15.2057 2.99245 16.9311 3.00011C18.3449 2.99245 19.58 3.37176 20.6366 4.13804C21.6931 4.91198 22.5178 5.97328 23.1107 7.32193C23.7036 8.67058 24 10.2031 24 11.9196V16.6364V18.9363C24 20.0761 23.0761 21 21.9363 21C20.7966 21 19.8727 20.0761 19.8727 18.9363V16.6364V11.8851Z" fill="black"/>
</svg>